<svg xmlns="http://www.w3.org/2000/svg" viewBox="0 0 31.63 15.57"><defs><style>.cls-1{fill:#4d3cf0;}.cls-2{fill:#fff;}</style></defs><g id="Layer_2" data-name="Layer 2"><g id="Layer_1-2" data-name="Layer 1"><path class="cls-1" d="M20.35,13.76a5.64,5.64,0,0,1,11.28,0Z"/><polygon class="cls-2" points="27.02 12.46 25.99 13.49 24.96 12.46 25.61 8.52 26.38 8.52 27.02 12.46"/><path class="cls-1" d="M26,9.62A3.72,3.72,0,1,1,29.71,5.9,3.72,3.72,0,0,1,26,9.62Z"/><path class="cls-2" d="M26,2.32A3.59,3.59,0,1,1,22.4,5.9,3.58,3.58,0,0,1,26,2.32m0-.25A3.84,3.84,0,1,0,29.83,5.9,3.85,3.85,0,0,0,26,2.07Z"/><path class="cls-1" d="M26,13.18a8.77,8.77,0,0,1-.12-1.53A8.8,8.8,0,0,1,26,10.11a8.81,8.81,0,0,1,.13,1.54A9.87,9.87,0,0,1,26,13.18Z"/><path class="cls-1" d="M0,13.76a5.64,5.64,0,0,1,11.28,0Z"/><polygon class="cls-2" points="6.67 12.46 5.64 13.49 4.61 12.46 5.25 8.52 6.02 8.52 6.67 12.46"/><path class="cls-1" d="M5.64,9.62A3.72,3.72,0,1,1,9.35,5.9,3.72,3.72,0,0,1,5.64,9.62Z"/><path class="cls-2" d="M5.64,2.32A3.59,3.59,0,1,1,2.05,5.9,3.58,3.58,0,0,1,5.64,2.32m0-.25A3.84,3.84,0,1,0,9.48,5.9,3.84,3.84,0,0,0,5.64,2.07Z"/><path class="cls-1" d="M5.64,13.18a9.87,9.87,0,0,1-.13-1.53,8.81,8.81,0,0,1,.13-1.54,8.8,8.8,0,0,1,.12,1.54A8.77,8.77,0,0,1,5.64,13.18Z"/><path class="cls-1" d="M8.39,15.57a7.43,7.43,0,1,1,14.85,0Z"/><polygon class="cls-2" points="17.18 13.87 15.81 15.23 14.45 13.87 15.31 8.67 16.32 8.67 17.18 13.87"/><path class="cls-1" d="M15.82,10.21a5,5,0,1,1,5-5A5,5,0,0,1,15.82,10.21Z"/><path class="cls-2" d="M15.82.5a4.73,4.73,0,1,1-4.73,4.73A4.72,4.72,0,0,1,15.82.5m0-.5A5.23,5.23,0,1,0,21,5.23,5.23,5.23,0,0,0,15.82,0Z"/><path class="cls-1" d="M15.82,14.82a13.84,13.84,0,0,1-.13-2,13.7,13.7,0,0,1,.13-2,15.21,15.21,0,0,1,.12,2A15.36,15.36,0,0,1,15.82,14.82Z"/></g></g></svg>