<svg xmlns="http://www.w3.org/2000/svg" viewBox="0 0 22.66 25.31"><defs><style>.cls-1{fill:#4d3cf0;}</style></defs><g id="Layer_2" data-name="Layer 2"><g id="Layer_1-2" data-name="Layer 1"><path class="cls-1" d="M18.73,21a5.45,5.45,0,0,1-1,1.78,5.91,5.91,0,0,1-4.45,2h0a1.39,1.39,0,0,1-.1.5H10.39a.84.84,0,0,1,0-1.67h2.76a1.45,1.45,0,0,1,.11.51h0a5.21,5.21,0,0,0,3.92-1.73A4.68,4.68,0,0,0,18,21,2.14,2.14,0,0,0,18.73,21Z"/><path class="cls-1" d="M19.89,11.57v8.16a1.47,1.47,0,0,1-1.21,1.36,2.45,2.45,0,0,1-.69,0,1.47,1.47,0,0,1-1-1.41v-8a1.47,1.47,0,0,1,2.94-.09Z"/><path class="cls-1" d="M22.66,12.8v5.7A1.47,1.47,0,0,1,21.19,20H20.7a1.48,1.48,0,0,1-.81-.24V11.57a1.51,1.51,0,0,1,.73-.24,3.35,3.35,0,0,1,.66,0A1.47,1.47,0,0,1,22.66,12.8Z"/><path class="cls-1" d="M2.77,11.57v8.16A1.48,1.48,0,0,1,2,20H1.47A1.47,1.47,0,0,1,0,18.5V12.8a1.47,1.47,0,0,1,1.47-1.47h.08a2.82,2.82,0,0,1,.66,0h0A1.37,1.37,0,0,1,2.77,11.57Z"/><path class="cls-1" d="M21.28,9.86v1.47a3.35,3.35,0,0,0-.66,0V9.86a9.21,9.21,0,0,0-18.41,0v1.49a2.82,2.82,0,0,0-.66,0V9.86A9.87,9.87,0,0,1,11.41,0a9.87,9.87,0,0,1,9.87,9.86Z"/><path class="cls-1" d="M5.71,11.66v8a1.47,1.47,0,0,1-2.94.09h0V11.57h0a1.47,1.47,0,0,1,2.94.09Z"/><path class="cls-1" d="M13.28,24.15v.66h0a1.39,1.39,0,0,1-.1.5H10.39a.84.84,0,0,1,0-1.67h2.76a1.45,1.45,0,0,1,.11.51Z"/><path class="cls-1" d="M11,18.72H11s0,0,0,0v0a.4.4,0,0,1-.21.07.59.59,0,0,1-.54-.65h0a.46.46,0,0,1,.5-.52c.18,0,.37.08.37.17s0,.09-.08.09a.14.14,0,0,1-.09,0,.42.42,0,0,0-.21-.06.32.32,0,0,0-.32.35c0,.17.09.49.36.49s.23-.06.23-.17v0c0-.07,0-.12,0-.12h-.25s0,0,0-.08,0-.09,0-.09h.4s0,0,0,.08v.47S11.11,18.72,11,18.72Z"/><path class="cls-1" d="M11.38,17.55h0s0,.1,0,.22v.88c0,.05,0,.07-.08.07s-.1,0-.1,0v-1.1s0,0,.09,0Z"/><path class="cls-1" d="M11.89,18.56a1.84,1.84,0,0,0-.16-.1v.13c0,.08,0,.13-.09.13s-.1,0-.1-.1v-1c0-.05.05-.06.13-.06h.18a.44.44,0,0,1,.46.43.39.39,0,0,1-.34.4l.15.11c.07.05.16.1.16.16s0,.07-.08.07h-.07A1.67,1.67,0,0,1,11.89,18.56Zm-.17-.32s0,0,0,0h0a.31.31,0,0,0,.32-.28c0-.26-.18-.27-.41-.27Z"/><path class="cls-1" d="M12.6,18.57c0,.1,0,.14,0,.14h-.17v-1.1c0-.05.11-.07.25-.07a1.91,1.91,0,0,1,.35,0,.25.25,0,0,1,0,.08c0,.05,0,.07-.09.07H12.6v.1c0,.05,0,.1,0,.1h.2c.08,0,.15,0,.18,0v.15H12.6Z"/><path class="cls-1" d="M13,18.63a8,8,0,0,1,.32-.88c.07-.2.1-.21.15-.21h0s.11.2.38,1l0,.15a.09.09,0,0,1-.09.07.08.08,0,0,1-.07,0l0-.06a.6.6,0,0,0-.07-.17h-.38l0,0-.06.15c0,.07-.06.09-.12.09s-.07,0-.07-.08Zm.3-.34h.32a3.75,3.75,0,0,0-.16-.43C13.39,17.93,13.27,18.2,13.25,18.29Z"/><path class="cls-1" d="M14.14,17.88v.79s0,0-.08,0-.1,0-.1,0V17.6c0-.05,0-.05.07-.05s.08,0,.09,0l.42.66.1.15v-.72c0-.11,0-.11.08-.11s.09,0,.09.08v1s0,0-.05,0-.1,0-.49-.61C14.26,18.09,14.14,17.89,14.14,17.88Z"/><path class="cls-1" d="M14.91,18.63a8,8,0,0,1,.32-.88c.07-.2.1-.21.15-.21h0s.11.2.38,1l.05.15a.09.09,0,0,1-.09.07.08.08,0,0,1-.07,0l0-.06c0-.07-.06-.17-.08-.17h-.37l0,0-.06.15c0,.07-.06.09-.12.09s-.07,0-.07-.08Zm.3-.34h.32a3.75,3.75,0,0,0-.16-.43C15.35,17.93,15.23,18.2,15.21,18.29Z"/><path class="cls-1" d="M9.58,20a7.83,7.83,0,0,1,.32-.87c.07-.2.1-.21.15-.21h0s.11.2.38,1l.05.15a.09.09,0,0,1-.09.07.08.08,0,0,1-.07,0l0-.06c0-.07-.06-.17-.08-.17H9.85l0,0L9.77,20c0,.07-.06.09-.12.09s-.07,0-.07-.08Zm.3-.33h.32a3.16,3.16,0,0,0-.16-.43C10,19.26,9.9,19.52,9.88,19.62Z"/><path class="cls-1" d="M11.49,20.05h-.06s0,0,0,0v0a.4.4,0,0,1-.21.07.6.6,0,0,1-.54-.65h0a.46.46,0,0,1,.5-.52c.18,0,.37.07.37.17s0,.09-.08.09a.14.14,0,0,1-.09,0,.45.45,0,0,0-.21-.06.32.32,0,0,0-.32.35c0,.17.09.49.36.49s.23-.06.23-.17v0c0-.07,0-.12,0-.12h-.25s0,0,0-.08,0-.09,0-.09h.4s.05,0,.05.08v.46S11.57,20.05,11.49,20.05Z"/><path class="cls-1" d="M12.44,18.87s0,0,0,.08,0,.09,0,.09H12v.05c0,.05,0,.13,0,.13h.33c.05,0,.06,0,.07.1h0s0,.05,0,.05H12v.5h.39s0,.05,0,.09,0,.07-.06.07H12c-.12,0-.13,0-.13-.07V18.87Z"/><path class="cls-1" d="M12.91,19.21V20s0,.05-.09.05-.09,0-.09-.05V18.93c0-.05,0-.05.07-.05s.08,0,.09,0l.42.66s.09.13.09.15V19c0-.11,0-.11.09-.11s.09,0,.09.08v1s0,.05-.05.05-.11,0-.49-.62Z"/><path class="cls-1" d="M14.38,18.88c.27,0,.29,0,.29.11s0,.07-.05.07h-.09c-.29,0-.5.06-.5.4a.39.39,0,0,0,.43.42h.16s0,.05,0,.07,0,.11-.2.11h-.07a.55.55,0,0,1-.54-.61A.55.55,0,0,1,14.38,18.88Z"/><path class="cls-1" d="M15.85,19s-.08.13-.38.37V20s0,.05-.09.05-.1,0-.1,0v-.69a2.14,2.14,0,0,1-.37-.39h0s.08-.07.09-.07h0s.07,0,.15.09a1.37,1.37,0,0,0,.21.21c.08,0,.34-.29.4-.29a.1.1,0,0,1,.06.05A.05.05,0,0,1,15.85,19Z"/><path class="cls-1" d="M10,17.42a1.62,1.62,0,0,1,0,.31.81.81,0,0,1-.11.33l-.13.2a.91.91,0,0,1-1.27.27l-.61-.4a.91.91,0,0,1-.27-1.27l.08-.12a.48.48,0,0,1,.09-.14.34.34,0,0,1,.14-.05.71.71,0,0,0,.39-.16c.06-.05.07-.13.12-.19A.77.77,0,0,1,8.59,16a1.15,1.15,0,0,1,.52-.25,1.79,1.79,0,0,0,.41-.13c.2-.11.3-.51.59-.36s0,.5-.09.7-.11.33,0,.45a.55.55,0,0,1,.07.6A.69.69,0,0,0,10,17.42Z"/><path class="cls-1" d="M13.81,14.47s0,.07,0,.11,0,.06,0,.1,0,.06,0,.1,0,.06,0,.09l0,.1a.36.36,0,0,1,0,.1l0,.09,0,.09a.42.42,0,0,0,0,.1l0,.09,0,.08,0,.09a.59.59,0,0,1,0,.08.41.41,0,0,0,0,.09l-.06.08a.35.35,0,0,1-.05.08l-.06.08-.06.07-.06.07-.06.08L13,16.3l-.07.07-.07.07-.07.06-.08.06-.08.06-.07.05-.08,0-.09.05-.08.05-.09.05-.08,0L12,17l-.09,0-.09,0-.1,0-.09,0-.1,0h-.07l-.06,0-.13,0h0l-.31.08a1.57,1.57,0,0,1-.28.1c-.05,0-.1-.06-.12-.09s-.15-.16.09-.48c0,0,.2-.12,0-.54A1.05,1.05,0,0,1,10.77,15a1.37,1.37,0,0,0,.29-.61s.07-.64,1.1-.43a2.78,2.78,0,0,0,1.06.05.78.78,0,0,1,.21,0c.09,0,.35,0,.39.1v.26S13.81,14.44,13.81,14.47Z"/><path class="cls-1" d="M13.59,13.08v.07a.36.36,0,0,1-.19.28s-.14.16-.63,0a.58.58,0,0,0-.14,0l-.15,0c-.07,0-.12.09-.19.12a.34.34,0,0,1-.12,0,.87.87,0,0,1-.42-.07.28.28,0,0,0-.13,0,.23.23,0,0,0-.11,0s-.08.07-.13.08h-.09a.28.28,0,0,1-.15-.08.22.22,0,0,1-.1-.2.75.75,0,0,1,.05-.26s.11-.21-.13-.6a.56.56,0,0,1-.06-.4c0-.06.06-.1.08-.16a.44.44,0,0,0,0-.16,1,1,0,0,0-.05-.16.36.36,0,0,1,0-.11.71.71,0,0,1,0-.14c0-.07,0-.07.1-.06a2.94,2.94,0,0,1,1.91.84,3,3,0,0,1,.4.47,2.54,2.54,0,0,1,.16.28A.67.67,0,0,1,13.59,13.08Z"/><path class="cls-1" d="M10.67,13.86a1.85,1.85,0,0,1-.14.38,2.26,2.26,0,0,0-.11.37.31.31,0,0,1-.06.13.3.3,0,0,1-.28.1c-.09,0-.17,0-.25,0a.64.64,0,0,0-.43.31.87.87,0,0,1-.57.3s-.3,0-.59.43c0,0-.13.15-.18.09s0-.16,0-.2a2.26,2.26,0,0,0,0-.26A3.47,3.47,0,0,0,8,15H8L8,14.8H8a3.49,3.49,0,0,1,0-.73,3,3,0,0,1,.83-1.91,3.31,3.31,0,0,1,.5-.41l.28-.16c.16-.09.25-.14.43-.06a.45.45,0,0,1,.28.38,4.32,4.32,0,0,1,0,.62.53.53,0,0,0,.14.44l.13.1.09.09A.88.88,0,0,1,10.67,13.86Z"/><ellipse class="cls-1" cx="8.17" cy="19.18" rx="0.32" ry="0.46" transform="translate(-7.9 5.9) rotate(-27.37)"/><ellipse class="cls-1" cx="7.27" cy="18.53" rx="0.32" ry="0.46" transform="translate(-12.19 22.73) rotate(-80.72)"/><path class="cls-1" d="M7.46,19.09a.1.1,0,0,1,.14.1v.23a.1.1,0,0,1-.15.08l-.1-.07-.1-.07a.1.1,0,0,1,0-.17l.1-.05Z"/></g></g></svg>