<svg xmlns="http://www.w3.org/2000/svg" viewBox="0 0 26.02 17.9"><defs><style>.cls-1{fill:#4d3cf0;}</style></defs><g id="Layer_2" data-name="Layer 2"><g id="Layer_1-2" data-name="Layer 1"><path class="cls-1" d="M26,3.92v14H0v-14l9.94,6.16H9.83a2.62,2.62,0,0,0-.62.12c-1.68.53-2.68,2.57-2.93,4.2,0,0-.44,2.38-1.77,2.92.4.09.76.15,1,.19a12.41,12.41,0,0,0,2.44,0,6.08,6.08,0,0,0,5.28-3.44,2.52,2.52,0,0,0-.06-2.23l1.13-.7a2.18,2.18,0,0,1,.09.45c0-.07.24-.31.28-.37s.28-.37.41-.56a0,0,0,0,0,0,0h0Z"/><path class="cls-1" d="M11.85,9.12a3.07,3.07,0,0,1,1.39.58L13,9.84Z"/><path class="cls-1" d="M18.58,1.77c-.93.92-1.82,1.89-2.75,2.83L11.59,8.94,0,1.77Z"/><path class="cls-1" d="M26,1.77,18.09,6.68l1.47-1.95a22.12,22.12,0,0,0,1.43-2,4.77,4.77,0,0,0,.42-1Z"/><rect class="cls-1" x="10.24" width="5.55" height="1.13"/><path class="cls-1" d="M11.85,9.12a1.59,1.59,0,0,1-.37-.06h0l0,0,.12-.1-.1.12V9A1.17,1.17,0,0,1,11.85,9.12Z"/><path class="cls-1" d="M18.09,6.68c-.94,1.38-1.94,2.71-3,4h0a0,0,0,0,1,0,0,0,0,0,0,0,0,0h0c.46-.7,1-1.36,1.46-2S17.56,7.33,18.09,6.68Z"/><path class="cls-1" d="M14.3,11.19A3.18,3.18,0,0,0,13.24,9.7,2.48,2.48,0,0,1,14.3,11.19Z"/><path class="cls-1" d="M18.58,1.77A4.59,4.59,0,0,1,20.41.34,1.47,1.47,0,0,1,21,.27a.56.56,0,0,1,.48.34,1.84,1.84,0,0,1-.07,1.16,2.21,2.21,0,0,0,0-1.14c-.16-.37-.65-.31-1-.2A5.3,5.3,0,0,0,18.58,1.77Z"/></g></g></svg>