<svg xmlns="http://www.w3.org/2000/svg" viewBox="0 0 23.18 22.29"><defs><style>.cls-1{fill:#4d3cf0;}.cls-2{fill:#fff;}</style></defs><g id="Layer_2" data-name="Layer 2"><g id="Layer_1-2" data-name="Layer 1"><path class="cls-1" d="M15.9,5.84A3.64,3.64,0,0,1,14.74,7,7.79,7.79,0,0,0,13,8.25a12.55,12.55,0,0,0-1.41,1.83s-1,1.37-1.78.86L7.41,9.39c-.8-.51,0-2,0-2A9.88,9.88,0,0,0,8.8,4.67,12,12,0,0,0,9,3.22a3.82,3.82,0,0,1,.57-1.49A3.78,3.78,0,0,1,15.9,5.84Z"/><path class="cls-2" d="M9.68,12.08A.3.3,0,0,1,9.52,12l-3-1.93a.31.31,0,0,1,.17-.57.34.34,0,0,1,.17.05l3,1.92a.35.35,0,0,1,.14.2.31.31,0,0,1,0,.23A.33.33,0,0,1,9.68,12.08Z"/><path class="cls-1" d="M6.7,9.58h0a.23.23,0,0,1,.14,0l3,1.93a.27.27,0,0,1,.11.16.28.28,0,0,1,0,.2.26.26,0,0,1-.22.12.33.33,0,0,1-.14,0l-3-1.93a.26.26,0,0,1-.08-.36.25.25,0,0,1,.22-.12m0-.1a.37.37,0,0,0-.3.16.36.36,0,0,0,.11.5l3,1.93a.35.35,0,0,0,.19.06A.37.37,0,0,0,10,12h0a.36.36,0,0,0-.11-.5l-3-1.92a.36.36,0,0,0-.2-.06Z"/><path class="cls-2" d="M8.81,12.69a.34.34,0,0,1-.17,0l-2.3-1.49A.35.35,0,0,1,6.2,11a.28.28,0,0,1,0-.23.29.29,0,0,1,.26-.14.26.26,0,0,1,.17.05L9,12.11a.32.32,0,0,1,.09.43A.31.31,0,0,1,8.81,12.69Z"/><path class="cls-1" d="M6.51,10.63h0a.23.23,0,0,1,.14,0L9,12.16a.26.26,0,0,1,.08.36.27.27,0,0,1-.22.12.24.24,0,0,1-.14-.05L6.36,11.11a.34.34,0,0,1-.11-.17.25.25,0,0,1,0-.19.25.25,0,0,1,.22-.12m0-.1a.36.36,0,0,0-.2.66l2.3,1.49a.36.36,0,0,0,.2.06.35.35,0,0,0,.3-.17.37.37,0,0,0-.1-.5L6.7,10.58a.34.34,0,0,0-.19-.05Z"/><path class="cls-2" d="M7.8,13.21a.3.3,0,0,1-.16-.05l-1.37-.88a.32.32,0,0,1-.09-.43.31.31,0,0,1,.26-.14.26.26,0,0,1,.17,0L8,12.64a.3.3,0,0,1,.14.19.33.33,0,0,1,0,.24A.32.32,0,0,1,7.8,13.21Z"/><path class="cls-1" d="M6.44,11.76h0a.23.23,0,0,1,.14,0L8,12.68a.25.25,0,0,1,.11.16.27.27,0,0,1-.26.32.25.25,0,0,1-.14,0L6.3,12.24a.25.25,0,0,1-.11-.17.22.22,0,0,1,0-.19.25.25,0,0,1,.22-.12m0-.1a.37.37,0,0,0-.3.16.36.36,0,0,0,.11.5l1.36.88a.35.35,0,0,0,.19.06.38.38,0,0,0,.31-.16A.36.36,0,0,0,8,12.6l-1.36-.88a.36.36,0,0,0-.2-.06Z"/><path class="cls-1" d="M23,13.07a5.65,5.65,0,0,1-1,1l-1.22,1.19a68.23,68.23,0,0,1-5.47,4.92l-.32.24s-5.27.4-9,.76a32.59,32.59,0,0,0-3.61.47L0,22.29V15.61l2.29-.73,3-1a7.4,7.4,0,0,1,1-.39c1.18-.41,2.4-.76,3.62-1.06a15.43,15.43,0,0,1,3-.66c.42,0,1.18,0,1.27.66.12,1-1.18,1.51-1.73,1.66L9.27,15.29l5.7.6,4.12-2.42c.54-.33,1.09-.65,1.63-1,.23-.14.45-.25.66-.39.46-.27,1-.75,1.49-.32A1,1,0,0,1,23,13.07Z"/></g></g></svg>